<svg version="1.0" xmlns="http://www.w3.org/2000/svg"
 width="467.000000pt" height="465.000000pt" viewBox="0 0 467.000000 465.000000"
 preserveAspectRatio="xMidYMid meet">
<metadata>
Created by potrace 1.16, written by Peter Selinger 2001-2019
</metadata>
<g transform="translate(0.000000,465.000000) scale(0.100000,-0.100000)"
fill="#000000" stroke="none">
<path d="M2268 4635 c-55 -31 -75 -118 -41 -175 10 -17 50 -47 102 -75 198
-110 418 -270 609 -443 255 -233 564 -631 761 -982 88 -158 96 -169 138 -186
71 -30 155 17 167 93 43 266 32 684 -25 963 -36 176 -42 191 -106 246 -407
351 -911 549 -1441 570 -113 4 -142 2 -164 -11z"/>
<path d="M1510 4500 c-484 -184 -912 -537 -1168 -967 -59 -98 -64 -132 -29
-184 53 -78 106 -78 240 1 514 305 1103 455 1827 465 174 3 283 9 296 16 49
26 72 129 39 176 -38 54 -321 241 -505 333 -205 103 -475 200 -554 200 -23 0
-88 -18 -146 -40z"/>
<path d="M4204 3536 c-67 -30 -70 -41 -77 -288 -8 -283 -30 -447 -93 -703 -88
-354 -256 -755 -460 -1095 -98 -163 -109 -203 -74 -258 11 -18 37 -40 58 -49
52 -22 91 -10 297 92 256 126 498 293 683 472 l80 78 16 90 c38 219 48 497 25
703 -32 289 -144 642 -278 870 -56 96 -104 120 -177 88z"/>
<path d="M914 3436 c-290 -130 -571 -317 -778 -518 -84 -82 -84 -83 -113 -268
-25 -161 -25 -520 0 -680 23 -146 76 -350 123 -476 50 -137 153 -341 190 -381
27 -29 38 -33 81 -33 94 0 136 59 126 176 -7 90 12 364 38 531 28 186 117 535
159 628 5 11 32 80 60 153 63 162 213 464 314 632 58 96 76 134 76 163 0 75
-50 127 -122 127 -18 0 -87 -24 -154 -54z"/>
<path d="M2175 3326 c-143 -23 -307 -88 -422 -167 -83 -57 -212 -190 -270
-276 -342 -515 -152 -1227 400 -1493 141 -67 241 -92 405 -97 161 -6 254 5
371 44 325 109 564 359 667 699 25 82 28 103 28 269 1 216 -14 287 -99 460
-167 343 -498 557 -880 570 -73 3 -152 -1 -200 -9z m277 -770 c82 -39 141
-124 154 -219 22 -158 -135 -313 -297 -294 -137 16 -240 130 -240 265 -1 108
57 201 156 249 41 20 62 23 120 21 40 -2 86 -11 107 -22z"/>
<path d="M724 1842 c-38 -24 -50 -54 -64 -157 -40 -295 -13 -730 62 -1008 21
-78 21 -79 102 -148 290 -249 678 -437 1050 -508 88 -17 146 -21 331 -21 l224
0 16 30 c22 42 19 112 -5 143 -11 14 -55 44 -98 67 -522 285 -1017 803 -1373
1436 -44 78 -89 150 -99 159 -30 27 -108 30 -146 7z"/>
<path d="M4130 1279 c-337 -200 -719 -338 -1127 -408 -253 -43 -365 -53 -668
-57 -335 -5 -350 -8 -381 -72 -27 -58 -14 -109 40 -158 106 -97 397 -273 595
-360 128 -56 386 -144 423 -144 81 0 448 168 625 287 274 184 518 436 692 717
64 103 65 178 3 226 -45 36 -105 27 -202 -31z"/>
</g>
</svg>